<?xml version="1.0" encoding="UTF-8"?>
<svg id="Layer_1" data-name="Layer 1" xmlns="http://www.w3.org/2000/svg" viewBox="0 0 258.17 54.99">
  <defs>
    <style>
      .cls-1 {
        fill: none;
        stroke: #000;
        stroke-miterlimit: 10;
        stroke-width: .75px;
      }

      .cls-2 {
        font-family: OpusChordsSansCondensedStd, 'Opus Chords Sans Condensed Std';
        font-size: 11px;
        letter-spacing: .07em;
      }
    </style>
  </defs>
  <g>
    <path d="M25.9,32.38c0,2.2-.32,4.2-.96,6-.64,1.8-1.54,3.33-2.69,4.59-1.16,1.26-2.56,2.25-4.21,2.94-1.65.7-3.47,1.04-5.45,1.04-1.72,0-3.35-.26-4.9-.77-1.54-.51-2.88-1.25-4.01-2.2-1.14-.95-2.04-2.11-2.7-3.46-.66-1.36-.99-2.86-.99-4.51,0-1.28.18-2.47.55-3.57.37-1.1.85-2.05,1.46-2.86.6-.81,1.28-1.45,2.04-1.92.75-.48,1.51-.71,2.28-.71v.27c-.62,0-1.26.22-1.92.66s-1.27,1.05-1.84,1.84c-.57.79-1.04,1.71-1.4,2.78-.37,1.06-.55,2.22-.55,3.46,0,1.54.29,2.95.88,4.24.59,1.28,1.39,2.38,2.42,3.3,1.03.92,2.24,1.63,3.63,2.14,1.39.51,2.9.77,4.51.77,3.3,0,5.88-1.03,7.73-3.08,1.85-2.05,2.78-4.93,2.78-8.63V11.81c0-2.71-.86-4.07-2.58-4.07v-.17h8.58v.17c-1.76,0-2.64,1.36-2.64,4.07v20.57Z"/>
    <path d="M30.36,36.4c0-.48.17-.88.5-1.21s.71-.5,1.15-.5c.48,0,.88.17,1.21.5s.5.73.5,1.21c0,.44-.17.82-.5,1.15s-.73.5-1.21.5c-.44,0-.82-.17-1.15-.5s-.5-.71-.5-1.15Z"/>
    <path d="M54.01,13.02c0,1.54.72,2.98,2.15,4.32,1.43,1.34,3.72,2.74,6.88,4.21,2.02.92,3.72,1.84,5.12,2.78,1.39.94,2.53,1.92,3.41,2.94.88,1.03,1.51,2.14,1.9,3.33.38,1.19.58,2.5.58,3.93,0,2.02-.33,3.85-.99,5.5-.66,1.65-1.6,3.07-2.81,4.26-1.21,1.19-2.66,2.12-4.34,2.78-1.69.66-3.54.99-5.56.99s-3.96-.33-5.72-.99c-1.76-.66-3.29-1.56-4.59-2.7-1.3-1.14-2.32-2.48-3.05-4.04-.73-1.56-1.1-3.22-1.1-4.98,0-1.32.21-2.58.63-3.77.42-1.19,1-2.24,1.73-3.14.73-.9,1.62-1.61,2.67-2.14,1.04-.53,2.17-.8,3.38-.8v.28c-1.1,0-2.12.25-3.05.74s-1.73,1.17-2.39,2.04c-.66.86-1.17,1.84-1.54,2.94-.37,1.1-.55,2.25-.55,3.46,0,1.65.34,3.19,1.02,4.62.68,1.43,1.61,2.67,2.8,3.71,1.19,1.04,2.59,1.86,4.21,2.45,1.61.59,3.35.88,5.23.88,1.65,0,3.15-.24,4.51-.71,1.36-.48,2.52-1.15,3.49-2.01.97-.86,1.71-1.88,2.23-3.05.51-1.17.77-2.48.77-3.91,0-2.71-.97-5.16-2.92-7.34-1.94-2.18-4.82-4.08-8.63-5.69-1.25-.51-2.38-1.06-3.41-1.65-1.03-.59-1.92-1.24-2.67-1.95-.75-.71-1.34-1.49-1.76-2.34-.42-.84-.63-1.76-.63-2.75,0-1.06.23-2.05.69-2.97.46-.92,1.1-1.72,1.93-2.42.82-.7,1.81-1.25,2.97-1.65,1.16-.4,2.41-.6,3.77-.6,1.61,0,3.09.28,4.43.85,1.34.57,2.43,1.33,3.27,2.28.22.29.4.49.55.58.15.09.27.14.38.14.26,0,.39-.44.39-1.32h.5v5.61h-.5c0-1.28-.23-2.4-.69-3.35-.46-.95-1.09-1.76-1.9-2.42-.81-.66-1.74-1.16-2.81-1.49-1.06-.33-2.18-.5-3.35-.5-2.09,0-3.71.48-4.87,1.43-1.15.95-1.73,2.16-1.73,3.63Z"/>
    <path d="M76.45,37.88c.95,0,1.62-.31,2.01-.93.39-.62.58-1.67.58-3.13V14.78c0-1.47-.19-2.51-.58-3.13-.38-.62-1.05-.94-2.01-.94v-.17h17.93l2.92,8.03h-.44c-1.06-2.75-2.22-4.68-3.46-5.8-1.25-1.12-2.86-1.68-4.84-1.68h-6.16v12.93h3.85c1.47,0,2.51-.28,3.13-.85.62-.57.94-1.53.94-2.89h.44v8.03h-.44c0-1.36-.31-2.32-.94-2.89-.62-.57-1.67-.85-3.13-.85h-3.85v12.92h7.09c1.87,0,3.5-.71,4.9-2.12,1.39-1.41,2.68-3.62,3.85-6.63h.44l-3.35,9.29h-18.86v-.17Z"/>
    <path d="M100.1,37.88c.95,0,1.63-.31,2.03-.93.4-.62.61-1.67.61-3.13V14.78c0-1.47-.2-2.51-.61-3.13-.4-.62-1.08-.94-2.03-.94v-.17h9.29c2.64,0,4.67.6,6.1,1.79s2.15,2.89,2.15,5.09c0,1.83-.49,3.31-1.46,4.43-.97,1.12-2.37,1.86-4.21,2.23,2.38.29,4.24,1.07,5.58,2.34,1.34,1.26,2.01,2.91,2.01,4.92,0,2.24-.83,3.92-2.5,5.03-1.67,1.12-4.02,1.68-7.07,1.68h-9.9v-.17ZM106.09,11.1v12.82h3.02c1.87,0,3.2-.51,3.99-1.54.79-1.03,1.18-2.71,1.18-5.06s-.39-3.92-1.18-4.84c-.79-.92-2.12-1.38-3.99-1.38h-3.02ZM106.09,24.3v13.2h3.35c2.27,0,3.97-.48,5.09-1.43,1.12-.95,1.68-2.53,1.68-4.73s-.59-3.97-1.76-5.2c-1.17-1.23-2.95-1.84-5.33-1.84h-3.02Z"/>
    <path d="M120.17,37.88c.51,0,.98-.2,1.4-.6.42-.4.76-.97,1.02-1.71l8.8-25.03h1.15l8.69,24.7c.62,1.76,1.47,2.64,2.53,2.64v.17h-8.8v-.17c1.36,0,2.22-.27,2.58-.8s.29-1.49-.22-2.89l-1.87-5.33h-9.96l-1.87,5.33c-.51,1.39-.59,2.36-.22,2.89.37.53,1.23.8,2.58.8v.17h-5.83v-.17ZM135.3,28.31l-4.78-13.64-4.84,13.64h9.62Z"/>
    <path d="M147.34,15.33c0,1.14.34,2.15,1.02,3.03s1.49,1.63,2.42,2.25c.94.62,1.9,1.13,2.89,1.51.99.38,1.8.67,2.42.85,2.75.84,4.87,1.92,6.35,3.22,1.49,1.3,2.23,2.94,2.23,4.92,0,1.17-.27,2.23-.8,3.16-.53.94-1.25,1.72-2.15,2.37-.9.64-1.93,1.13-3.11,1.46-1.17.33-2.42.49-3.74.49-1.98,0-3.8-.37-5.47-1.1s-2.92-1.71-3.77-2.92c-.18-.22-.31-.37-.39-.44s-.15-.11-.22-.11c-.18,0-.29.18-.33.55-.04.37-.05.64-.05.83h-.44v-6.6h.44c0,1.36.27,2.59.8,3.71.53,1.12,1.27,2.09,2.2,2.92.94.83,2.04,1.47,3.3,1.92,1.27.46,2.63.69,4.1.69,1.87,0,3.45-.38,4.73-1.15,1.28-.77,1.92-1.98,1.92-3.63s-.72-3.12-2.17-4.29c-1.45-1.17-3.49-2.18-6.13-3.02-3.19-.95-5.49-2.14-6.9-3.55-1.41-1.41-2.12-3.03-2.12-4.87,0-1.1.23-2.12.69-3.05.46-.93,1.09-1.73,1.9-2.39s1.77-1.17,2.89-1.54c1.12-.37,2.34-.55,3.66-.55,1.69,0,3.17.28,4.46.85,1.28.57,2.46,1.38,3.52,2.45.4.4.68.61.82.61.26,0,.39-.46.39-1.38h.55v5.61h-.55c0-1.17-.26-2.23-.77-3.16s-1.2-1.73-2.06-2.39-1.83-1.16-2.92-1.51c-1.08-.35-2.21-.52-3.38-.52-1.87,0-3.37.43-4.51,1.29s-1.71,2.03-1.71,3.49Z"/>
    <path d="M174.52,37.88c.95,0,1.62-.31,2.01-.93.39-.62.58-1.67.58-3.13V11.1h-3.52c-1.03,0-1.92.13-2.67.39-.75.26-1.4.68-1.95,1.26-.55.59-1.01,1.36-1.38,2.31-.37.95-.68,2.13-.93,3.52h-.44l1.54-8.03h22.06l1.48,8.03h-.44c-.26-1.39-.58-2.57-.96-3.52-.38-.95-.84-1.72-1.38-2.31-.53-.59-1.16-1.01-1.9-1.26-.73-.26-1.61-.39-2.64-.39h-3.52v22.72c0,1.47.19,2.51.58,3.13.38.62,1.05.93,2.01.93v.17h-8.52v-.17Z"/>
    <path d="M193.1,37.88c.95,0,1.62-.31,2.01-.93.38-.62.58-1.67.58-3.13V14.78c0-1.47-.19-2.51-.58-3.13-.38-.62-1.05-.94-2.01-.94v-.17h8.58v.17c-.95,0-1.63.31-2.04.94-.4.62-.6,1.67-.6,3.13v19.03c0,1.47.2,2.51.6,3.13.4.62,1.08.93,2.04.93v.17h-8.58v-.17Z"/>
    <path d="M202.57,37.88c.51,0,.98-.2,1.4-.6.42-.4.76-.97,1.02-1.71l8.8-25.03h1.16l8.69,24.7c.62,1.76,1.47,2.64,2.53,2.64v.17h-8.8v-.17c1.36,0,2.22-.27,2.58-.8.37-.53.29-1.49-.22-2.89l-1.87-5.33h-9.96l-1.87,5.33c-.51,1.39-.59,2.36-.22,2.89.37.53,1.23.8,2.58.8v.17h-5.83v-.17ZM217.69,28.31l-4.79-13.64-4.84,13.64h9.62Z"/>
    <path d="M230.73,12.97v20.85c0,1.47.2,2.51.6,3.13.4.62,1.08.93,2.04.93v.17h-5.78v-.17c.95,0,1.62-.31,2.01-.93.38-.62.58-1.67.58-3.13V14.78c0-1.47-.19-2.51-.58-3.13-.38-.62-1.05-.94-2.01-.94v-.17h5.5l15.57,22.17V14.78c0-1.47-.19-2.51-.58-3.13-.39-.62-1.05-.94-2.01-.94v-.17h5.78v.17c-.95,0-1.63.31-2.04.94-.4.62-.61,1.67-.61,3.13v22.27l-.83.99-17.65-25.08Z"/>
  </g>
  <text class="cls-2" transform="translate(106.09 51.15)"><tspan x="0" y="0">Digital Designer</tspan></text>
  <polyline class="cls-1" points="19.86 .38 257.79 .38 257.79 48.58 174.35 48.58"/>
</svg>